<svg width="31" height="30" viewBox="0 0 31 30" fill="none" xmlns="http://www.w3.org/2000/svg">
<mask id="mask0_20_9" style="mask-type:luminance" maskUnits="userSpaceOnUse" x="0" y="0" width="31" height="30">
<path d="M0.754395 -1.90735e-06H31V30H0.754395V-1.90735e-06Z" fill="white"/>
</mask>
<g mask="url(#mask0_20_9)">
<path d="M23.3548 11.0526C23.3548 19.7369 27.8165 18.9474 27.8165 22.8947C27.8165 22.8947 27.8165 24.4737 26.0318 24.4737H2.83106C1.04639 24.4737 1.04639 22.8947 1.04639 22.8947C1.04639 18.9474 5.50807 19.7369 5.50807 11.0526C5.50807 6.69317 9.50396 3.15791 14.4314 3.15791C19.3589 3.15791 23.3548 6.69317 23.3548 11.0526Z" fill="#A483C8"/>
<path d="M17.1089 3.15792C17.1089 2.52977 16.8269 1.92735 16.3248 1.48319C15.8228 1.03902 15.1419 0.789495 14.4319 0.789495C13.7219 0.789495 13.041 1.03902 12.539 1.48319C12.0369 1.92735 11.7549 2.52977 11.7549 3.15792C11.7549 3.78606 12.0369 4.38848 12.539 4.83264C13.041 5.27681 13.7219 5.52634 14.4319 5.52634C15.1419 5.52634 15.8228 5.27681 16.3248 4.83264C16.8269 4.38848 17.1089 3.78606 17.1089 3.15792Z" fill="#A483C8"/>
<path d="M14.4312 29.2105C15.3778 29.2105 16.2857 28.8778 16.9551 28.2856C17.6245 27.6934 18.0005 26.8902 18.0005 26.0526H10.8618C10.8618 26.8902 11.2379 27.6934 11.9073 28.2856C12.5766 28.8778 13.4845 29.2105 14.4312 29.2105Z" fill="#A483C8"/>
</g>
</svg>
